<svg version="1.1" id="Layer_10" xmlns="http://www.w3.org/2000/svg" x="0" y="0" viewBox="0 0 700.6 108" style="enable-background:new 0 0 700.6 108" xml:space="preserve"><style>.st0{fill:#fff}</style><path class="st0" d="M249.8 21h65v9.6h-65zM249.8 48.2h65v9.6h-65zM249.8 75.4h65V85h-65zM54.7 44.5c-3-1.7-6.3-3-10-4.1-3.6-1-7.3-2-10.9-2.8s-6.9-1.8-9.9-2.8-5.4-2.4-7.3-4.2-2.8-4.1-2.8-7.1c0-2.5.7-4.7 2.1-6.7s3.6-3.6 6.7-4.8c3-1.2 6.9-1.8 11.6-1.8 3.8 0 7.6.5 11.6 1.6s7.8 2.8 11.4 5.2l4-9.6C57.7 5 53.5 3.2 48.7 1.9S39.1 0 34.2 0C26.8 0 20.8 1.1 16 3.3S7.7 8.4 5.4 12.1 2 19.7 2 24s1 8.1 2.8 11c1.8 2.8 4.3 5.1 7.3 6.8s6.3 3.1 10 4.1 7.3 2 10.9 2.8 6.9 1.7 9.9 2.8 5.4 2.5 7.3 4.3 2.8 4.1 2.8 7c0 2.5-.7 4.7-2.2 6.7-1.4 2-3.7 3.5-6.7 4.6s-7 1.7-11.9 1.7c-5.4 0-10.5-.9-15.5-2.8-5-1.8-9-4.2-12.2-7L0 75.4C3.4 78.5 8 81 13.8 83s12 2.9 18.4 2.9c7.4 0 13.5-1.1 18.3-3.3s8.4-5.1 10.7-8.8 3.5-7.6 3.5-11.8-.9-8-2.8-10.8-4.2-5-7.2-6.7zM126.1 80.7c4.4-2.7 7.9-6.3 10.4-10.7 2.8-4.9 4.3-10.5 4.3-16.8s-1.4-12-4.3-16.9c-2.8-4.8-6.8-8.6-11.8-11.4s-10.7-4.1-17-4.1-12.1 1.4-17 4.1c-5 2.8-8.9 6.6-11.8 11.5s-4.3 10.5-4.3 16.8S76.1 65 79 69.9c2.6 4.5 6.1 8.1 10.5 10.8-4.3 2.7-7.8 6.2-10.5 10.7-2.9 4.8-4.3 10.4-4.3 16.6h11.6c0-4.5 1-8.3 2.9-11.6 1.9-3.3 4.5-5.9 7.7-7.7 3.2-1.8 6.8-2.8 10.9-2.8s7.7.9 11 2.8c3.2 1.8 5.8 4.4 7.6 7.7 1.8 3.3 2.7 7.2 2.8 11.6h11.6c0-6.3-1.5-11.9-4.2-16.7-2.7-4.4-6.2-7.9-10.5-10.6zM86.3 53.2c0-4.6 1-8.5 2.9-11.8s4.5-5.9 7.7-7.7 6.8-2.8 10.9-2.8 7.7.9 11 2.8c3.2 1.8 5.8 4.4 7.6 7.7s2.8 7.3 2.8 11.8-.9 8.4-2.8 11.8-4.4 6-7.6 7.9c-3.2 1.8-6.9 2.8-11 2.8s-7.7-.9-10.9-2.8-5.8-4.5-7.7-7.9c-2-3.4-2.9-7.4-2.9-11.8zM161.8 32.1V21.4h-11V85h11.5V53.3c0-7 1.8-12.3 5.4-16s8.5-5.5 14.6-5.5h1.3c.4 0 .9 0 1.4.1V20.8c-6.1 0-11.2 1.2-15.4 3.5-3.4 1.8-6 4.5-7.8 7.8zM226.9 76c-3.2 0-5.7-.9-7.4-2.8s-2.6-4.5-2.6-7.9V30.8h18.2v-9.5h-18.2V7.4h-11.5v13.9h-10.8v9.5h10.8v34.9c0 6.4 1.8 11.3 5.3 14.8s8.5 5.2 14.9 5.2c2.6 0 5.2-.4 7.6-1.1 2.4-.7 4.5-1.8 6.3-3.4l-3.6-8.3c-2.4 2.1-5.4 3.1-9 3.1zM379.2 1v30c-2.2-2.8-4.7-5-7.7-6.7-4.3-2.4-9.2-3.6-14.5-3.6-6.2 0-11.7 1.4-16.5 4.1s-8.7 6.5-11.5 11.3-4.2 10.5-4.2 17 1.4 12.2 4.2 17c2.8 4.9 6.6 8.7 11.5 11.4 4.8 2.7 10.3 4.1 16.5 4.1 5.5 0 10.4-1.2 14.8-3.7 3.1-1.8 5.7-4.1 7.9-7.1v10h11V1h-11.5zm-2.7 64c-1.9 3.4-4.4 6-7.7 7.9-3.2 1.8-6.9 2.8-10.9 2.8s-7.7-.9-10.9-2.8-5.8-4.5-7.7-7.9-2.9-7.3-2.9-11.8 1-8.5 2.9-11.8 4.5-5.9 7.7-7.7 6.8-2.8 10.9-2.8 7.6.9 10.9 2.8c3.3 1.9 5.8 4.4 7.7 7.7s2.8 7.3 2.8 11.8-1 8.4-2.8 11.8zM476.1 56.3c5.2-2.3 9.2-5.7 12-10.1s4.2-9.6 4.2-15.8-1.4-11.4-4.2-15.8-6.8-7.8-12-10.1C470.9 2.1 464.6 1 457.2 1h-32.8v84.5h12V59.8h20.8c1.8 0 3.6-.1 5.3-.2l18.1 25.9h13.1l-19.9-28.3c.8-.3 1.5-.6 2.3-.9zm-19.2-6.8h-20.4v-38h20.4c7.7 0 13.5 1.6 17.5 5 4 3.3 5.9 8 5.9 14s-2 10.7-5.9 14.1-9.8 4.9-17.5 4.9zM531.6 20.8c-5 0-9.9.7-14.5 2.1s-8.5 3.4-11.8 6.1l4.8 8.6c2.5-2.1 5.5-3.7 9.1-5s7.3-1.9 11-1.9c5.7 0 9.9 1.3 12.8 4s4.3 6.5 4.3 11.3v2.3h-18.2c-6.3 0-11.3.8-15.1 2.5s-6.4 3.9-8 6.7-2.5 5.9-2.5 9.4 1 6.8 2.9 9.7c1.9 2.8 4.7 5.1 8.2 6.7 3.5 1.6 7.7 2.4 12.4 2.4 5.8 0 10.7-1.1 14.5-3.3 2.7-1.5 4.8-3.5 6.4-5.8V85h10.9V46.6c0-8.7-2.4-15.2-7.1-19.4-4.7-4.3-11.4-6.4-20.1-6.4zm8.7 53.1c-3.2 1.9-7 2.9-11.3 2.9s-7.8-.9-10.3-2.8-3.7-4.4-3.7-7.5c0-2.7 1-5 3-7 2-1.9 5.9-2.9 11.6-2.9h17.8v8.9c-1.5 3.7-3.9 6.5-7.1 8.4zM590.6 33.6c3.3-1.8 7-2.8 11.2-2.8 3.4 0 6.7.7 9.7 2.2s5.5 3.8 7.6 6.9l8.8-5.6c-2.5-4.5-6-7.9-10.5-10.1-4.5-2.3-9.7-3.4-15.4-3.4-6.5 0-12.3 1.4-17.3 4.1-5.1 2.8-9.1 6.6-11.9 11.5s-4.3 10.5-4.3 16.8 1.4 11.9 4.3 16.8 6.9 8.7 11.9 11.5c5.1 2.8 10.9 4.2 17.3 4.2 5.8 0 10.9-1.2 15.4-3.5 4.5-2.4 8-5.7 10.5-10.1l-8.8-5.5c-2.1 3.1-4.6 5.4-7.6 6.9s-6.2 2.2-9.7 2.2c-4.2 0-7.9-.9-11.2-2.8-3.3-1.8-5.9-4.4-7.8-7.8s-2.9-7.3-2.9-11.9 1-8.5 2.9-11.8 4.6-6 7.8-7.8zM700.6 85.5h-14.1l-23.9-30-13.2 12.4v17.6h-11.5V.5h11.5v52.7l34.7-32.1H698l-26.8 26.6z"/></svg>